ISO-10303-21;
HEADER;
FILE_DESCRIPTION (( 'STEP AP214' ),
    '1' );
FILE_NAME ('CC0402KRX7R7BB104.STEP',
    '2023-03-09T10:25:10',
    ( '' ),
    ( '' ),
    'SwSTEP 2.0',
    'SolidWorks 2019',
    '' );
FILE_SCHEMA (( 'AUTOMOTIVE_DESIGN' ));
ENDSEC;

DATA;
#1 = CARTESIAN_POINT ( 'NONE',  ( 0.3000000000000000444, 0.2250000000000000056, 0.000000000000000000 ) ) ;
#2 = AXIS2_PLACEMENT_3D ( 'NONE', #239, #383, #201 ) ;
#3 = CARTESIAN_POINT ( 'NONE',  ( 0.000000000000000000, 0.2500000000000000000, 0.000000000000000000 ) ) ;
#4 = PLANE ( 'NONE',  #197 ) ;
#5 = ORIENTED_EDGE ( 'NONE', *, *, #204, .F. ) ;
#6 = PRODUCT_DEFINITION_FORMATION_WITH_SPECIFIED_SOURCE ( 'ANY', '', #259, .NOT_KNOWN. ) ;
#7 = DIRECTION ( 'NONE',  ( 2.168404344971008868E-16, 0.000000000000000000, 1.000000000000000000 ) ) ;
#8 = VERTEX_POINT ( 'NONE', #368 ) ;
#9 = AXIS2_PLACEMENT_3D ( 'NONE', #479, #188, #298 ) ;
#10 = COLOUR_RGB ( '',0.7921568627450980005, 0.8196078431372548767, 0.9333333333333333481 ) ;
#11 = VECTOR ( 'NONE', #474, 1000.000000000000000 ) ;
#12 = SHAPE_DEFINITION_REPRESENTATION ( #480, #254 ) ;
#13 = FACE_BOUND ( 'NONE', #357, .T. ) ;
#14 = ORIENTED_EDGE ( 'NONE', *, *, #288, .F. ) ;
#15 = APPLICATION_PROTOCOL_DEFINITION ( 'draft international standard', 'automotive_design', 1998, #319 ) ;
#16 = DIRECTION ( 'NONE',  ( 0.000000000000000000, -1.000000000000000000, 0.000000000000000000 ) ) ;
#17 = EDGE_CURVE ( 'NONE', #475, #389, #434, .T. ) ;
#18 = ORIENTED_EDGE ( 'NONE', *, *, #295, .F. ) ;
#19 = PRODUCT_CONTEXT ( 'NONE', #319, 'mechanical' ) ;
#20 = FACE_OUTER_BOUND ( 'NONE', #167, .T. ) ;
#21 = ORIENTED_EDGE ( 'NONE', *, *, #149, .T. ) ;
#22 = LINE ( 'NONE', #216, #222 ) ;
#23 = VERTEX_POINT ( 'NONE', #144 ) ;
#24 = PRODUCT_RELATED_PRODUCT_CATEGORY ( 'part', '', ( #259 ) ) ;
#25 = ORIENTED_EDGE ( 'NONE', *, *, #105, .F. ) ;
#26 = DIRECTION ( 'NONE',  ( 0.000000000000000000, -0.000000000000000000, 1.000000000000000000 ) ) ;
#27 = EDGE_CURVE ( 'NONE', #165, #245, #439, .T. ) ;
#28 = STYLED_ITEM ( 'NONE', ( #361 ), #254 ) ;
#29 = DIRECTION ( 'NONE',  ( 1.000000000000000000, 0.000000000000000000, 0.000000000000000000 ) ) ;
#30 = DIRECTION ( 'NONE',  ( 2.168404344971008375E-16, 0.000000000000000000, 1.000000000000000000 ) ) ;
#31 = ORIENTED_EDGE ( 'NONE', *, *, #143, .T. ) ;
#32 = CARTESIAN_POINT ( 'NONE',  ( 0.3000000000000000444, -0.2500000000000000000, -0.2500000000000000555 ) ) ;
#33 = CARTESIAN_POINT ( 'NONE',  ( -0.5000000000000001110, 0.2500000000000000000, -0.2500000000000000555 ) ) ;
#34 = ADVANCED_FACE ( 'NONE', ( #104 ), #406, .F. ) ;
#35 = CARTESIAN_POINT ( 'NONE',  ( 0.3000000000000000999, 0.2250000000000000056, 0.2250000000000000333 ) ) ;
#36 = PRESENTATION_LAYER_ASSIGNMENT (  '', '', ( #28 ) ) ;
#37 = DIRECTION ( 'NONE',  ( -1.084202172485503448E-15, 0.000000000000000000, -1.000000000000000000 ) ) ;
#38 = PRESENTATION_LAYER_ASSIGNMENT (  '', '', ( #463 ) ) ;
#39 = AXIS2_PLACEMENT_3D ( 'NONE', #377, #297, #110 ) ;
#40 = DIRECTION ( 'NONE',  ( -0.000000000000000000, -1.000000000000000000, -0.000000000000000000 ) ) ;
#41 = CARTESIAN_POINT ( 'NONE',  ( -0.4749999999999999778, 0.2250000000000000056, 0.2250000000000000333 ) ) ;
#42 = ADVANCED_FACE ( 'NONE', ( #69 ), #81, .F. ) ;
#43 = PLANE ( 'NONE',  #77 ) ;
#44 = LINE ( 'NONE', #337, #257 ) ;
#45 = CLOSED_SHELL ( 'NONE', ( #370, #42, #100, #462, #34, #148, #330, #176, #279, #113, #224, #448, #187, #128, #435, #358 ) ) ;
#46 = DIRECTION ( 'NONE',  ( 1.000000000000000000, 0.000000000000000000, -1.084202172485503448E-15 ) ) ;
#47 = DIRECTION ( 'NONE',  ( 2.168404344971008375E-16, -0.000000000000000000, 1.000000000000000000 ) ) ;
#48 = VECTOR ( 'NONE', #16, 1000.000000000000000 ) ;
#49 = DIRECTION ( 'NONE',  ( 0.000000000000000000, -0.000000000000000000, 1.000000000000000000 ) ) ;
#50 = DIRECTION ( 'NONE',  ( 0.000000000000000000, 0.000000000000000000, -1.000000000000000000 ) ) ;
#51 = DIRECTION ( 'NONE',  ( 1.000000000000000000, 0.000000000000000000, 2.710505431213760099E-16 ) ) ;
#52 = ORIENTED_EDGE ( 'NONE', *, *, #426, .T. ) ;
#53 = VECTOR ( 'NONE', #78, 1000.000000000000000 ) ;
#54 = CARTESIAN_POINT ( 'NONE',  ( -0.2999999999999999889, 0.2250000000000000056, -0.2250000000000000056 ) ) ;
#55 = ORIENTED_EDGE ( 'NONE', *, *, #17, .T. ) ;
#56 = AXIS2_PLACEMENT_3D ( 'NONE', #308, #50, #86 ) ;
#57 = EDGE_CURVE ( 'NONE', #210, #173, #263, .T. ) ;
#58 = VERTEX_POINT ( 'NONE', #269 ) ;
#59 = EDGE_LOOP ( 'NONE', ( #428, #145, #127, #55 ) ) ;
#60 = DIRECTION ( 'NONE',  ( 1.000000000000000000, 0.000000000000000000, -1.084202172485503448E-15 ) ) ;
#61 = ORIENTED_EDGE ( 'NONE', *, *, #312, .T. ) ;
#62 = VECTOR ( 'NONE', #401, 1000.000000000000000 ) ;
#63 = EDGE_CURVE ( 'NONE', #132, #283, #416, .T. ) ;
#64 = ORIENTED_EDGE ( 'NONE', *, *, #418, .T. ) ;
#65 = EDGE_CURVE ( 'NONE', #420, #8, #218, .T. ) ;
#66 = CARTESIAN_POINT ( 'NONE',  ( -0.2999999999999999334, -0.2250000000000000056, 0.2250000000000000333 ) ) ;
#67 = ORIENTED_EDGE ( 'NONE', *, *, #288, .T. ) ;
#68 = LINE ( 'NONE', #213, #199 ) ;
#69 = FACE_OUTER_BOUND ( 'NONE', #393, .T. ) ;
#70 = DIRECTION ( 'NONE',  ( 0.000000000000000000, 1.000000000000000000, 0.000000000000000000 ) ) ;
#71 = EDGE_CURVE ( 'NONE', #397, #258, #484, .T. ) ;
#72 = ORIENTED_EDGE ( 'NONE', *, *, #154, .F. ) ;
#73 = CARTESIAN_POINT ( 'NONE',  ( -0.5000000000000001110, 0.2500000000000000000, -0.2500000000000000555 ) ) ;
#74 = CARTESIAN_POINT ( 'NONE',  ( -0.4749999999999999778, -0.2250000000000000056, 0.2250000000000000333 ) ) ;
#75 = FACE_OUTER_BOUND ( 'NONE', #425, .T. ) ;
#76 = UNCERTAINTY_MEASURE_WITH_UNIT (LENGTH_MEASURE( 1.000000000000000082E-05 ), #476, 'distance_accuracy_value', 'NONE');
#77 = AXIS2_PLACEMENT_3D ( 'NONE', #3, #229, #267 ) ;
#78 = DIRECTION ( 'NONE',  ( -0.000000000000000000, -1.000000000000000000, -0.000000000000000000 ) ) ;
#79 = DIRECTION ( 'NONE',  ( -2.168404344971008868E-16, -0.000000000000000000, -1.000000000000000000 ) ) ;
#80 = LINE ( 'NONE', #264, #356 ) ;
#81 = PLANE ( 'NONE',  #470 ) ;
#82 = CARTESIAN_POINT ( 'NONE',  ( -0.3000000000000000444, 0.2500000000000000000, -0.2500000000000000000 ) ) ;
#83 = CARTESIAN_POINT ( 'NONE',  ( 0.5000000000000002220, 0.2500000000000000000, 0.2499999999999998335 ) ) ;
#84 = PLANE ( 'NONE',  #215 ) ;
#85 = ORIENTED_EDGE ( 'NONE', *, *, #204, .T. ) ;
#86 = DIRECTION ( 'NONE',  ( -1.000000000000000000, 0.000000000000000000, -0.000000000000000000 ) ) ;
#87 = EDGE_LOOP ( 'NONE', ( #272, #459, #371, #108 ) ) ;
#88 = CARTESIAN_POINT ( 'NONE',  ( -0.2999999999999999334, 0.2500000000000000000, 0.2500000000000001110 ) ) ;
#89 = VECTOR ( 'NONE', #184, 1000.000000000000000 ) ;
#90 = VERTEX_POINT ( 'NONE', #341 ) ;
#91 = EDGE_CURVE ( 'NONE', #399, #274, #444, .T. ) ;
#92 = FILL_AREA_STYLE_COLOUR ( '', #301 ) ;
#93 = CARTESIAN_POINT ( 'NONE',  ( 0.5000000000000001110, -0.2500000000000000000, -0.2500000000000001665 ) ) ;
#94 = EDGE_LOOP ( 'NONE', ( #461, #18, #253, #256 ) ) ;
#95 =( LENGTH_UNIT ( ) NAMED_UNIT ( * ) SI_UNIT ( .MILLI., .METRE. ) );
#96 = FILL_AREA_STYLE_COLOUR ( '', #10 ) ;
#97 = ORIENTED_EDGE ( 'NONE', *, *, #91, .T. ) ;
#98 = LINE ( 'NONE', #106, #182 ) ;
#99 = ORIENTED_EDGE ( 'NONE', *, *, #426, .F. ) ;
#100 = ADVANCED_FACE ( 'NONE', ( #261 ), #181, .T. ) ;
#101 = CARTESIAN_POINT ( 'NONE',  ( 0.5000000000000001110, 0.2500000000000000000, -0.2500000000000001665 ) ) ;
#102 = EDGE_LOOP ( 'NONE', ( #25, #136, #141, #85 ) ) ;
#103 = LINE ( 'NONE', #32, #62 ) ;
#104 = FACE_OUTER_BOUND ( 'NONE', #290, .T. ) ;
#105 = EDGE_CURVE ( 'NONE', #194, #205, #44, .T. ) ;
#106 = CARTESIAN_POINT ( 'NONE',  ( -0.3000000000000000444, -0.2500000000000000000, -0.2500000000000000000 ) ) ;
#107 = ORIENTED_EDGE ( 'NONE', *, *, #105, .T. ) ;
#108 = ORIENTED_EDGE ( 'NONE', *, *, #418, .F. ) ;
#109 = UNCERTAINTY_MEASURE_WITH_UNIT (LENGTH_MEASURE( 1.000000000000000082E-05 ), #443, 'distance_accuracy_value', 'NONE');
#110 = DIRECTION ( 'NONE',  ( 0.000000000000000000, -0.000000000000000000, 1.000000000000000000 ) ) ;
#111 = EDGE_CURVE ( 'NONE', #173, #58, #116, .T. ) ;
#112 = LINE ( 'NONE', #74, #89 ) ;
#113 = ADVANCED_FACE ( 'NONE', ( #75 ), #221, .F. ) ;
#114 = VECTOR ( 'NONE', #40, 1000.000000000000000 ) ;
#115 = DIRECTION ( 'NONE',  ( -0.000000000000000000, -1.000000000000000000, -0.000000000000000000 ) ) ;
#116 = LINE ( 'NONE', #265, #424 ) ;
#117 = AXIS2_PLACEMENT_3D ( 'NONE', #286, #70, #26 ) ;
#118 = CARTESIAN_POINT ( 'NONE',  ( 0.3000000000000000444, 0.2500000000000000000, 0.2500000000000000555 ) ) ;
#119 = FACE_OUTER_BOUND ( 'NONE', #353, .T. ) ;
#120 = EDGE_CURVE ( 'NONE', #399, #8, #482, .T. ) ;
#121 = LINE ( 'NONE', #118, #206 ) ;
#122 = DIRECTION ( 'NONE',  ( 0.000000000000000000, 0.000000000000000000, -1.000000000000000000 ) ) ;
#123 =( GEOMETRIC_REPRESENTATION_CONTEXT ( 3 ) GLOBAL_UNCERTAINTY_ASSIGNED_CONTEXT ( ( #219 ) ) GLOBAL_UNIT_ASSIGNED_CONTEXT ( ( #95, #235, #456 ) ) REPRESENTATION_CONTEXT ( 'NONE', 'WORKASPACE' ) );
#124 = VECTOR ( 'NONE', #375, 1000.000000000000000 ) ;
#125 = DIRECTION ( 'NONE',  ( 0.000000000000000000, 0.000000000000000000, -1.000000000000000000 ) ) ;
#126 = ORIENTED_EDGE ( 'NONE', *, *, #338, .T. ) ;
#127 = ORIENTED_EDGE ( 'NONE', *, *, #437, .T. ) ;
#128 = ADVANCED_FACE ( 'NONE', ( #119 ), #4, .F. ) ;
#129 = PLANE ( 'NONE',  #2 ) ;
#130 = VERTEX_POINT ( 'NONE', #310 ) ;
#131 = DIRECTION ( 'NONE',  ( 2.168404344971007882E-16, 0.000000000000000000, 1.000000000000000000 ) ) ;
#132 = VERTEX_POINT ( 'NONE', #232 ) ;
#133 = CARTESIAN_POINT ( 'NONE',  ( 0.5000000000000001110, 0.2500000000000000000, -0.2500000000000001665 ) ) ;
#134 = ORIENTED_EDGE ( 'NONE', *, *, #340, .F. ) ;
#135 = CARTESIAN_POINT ( 'NONE',  ( 0.3000000000000000999, -0.2250000000000000056, 0.2250000000000000333 ) ) ;
#136 = ORIENTED_EDGE ( 'NONE', *, *, #231, .T. ) ;
#137 = FACE_OUTER_BOUND ( 'NONE', #59, .T. ) ;
#138 = ORIENTED_EDGE ( 'NONE', *, *, #318, .F. ) ;
#139 = VECTOR ( 'NONE', #450, 1000.000000000000000 ) ;
#140 = VECTOR ( 'NONE', #60, 1000.000000000000000 ) ;
#141 = ORIENTED_EDGE ( 'NONE', *, *, #63, .T. ) ;
#142 = EDGE_CURVE ( 'NONE', #475, #397, #352, .T. ) ;
#143 = EDGE_CURVE ( 'NONE', #274, #420, #191, .T. ) ;
#144 = CARTESIAN_POINT ( 'NONE',  ( 0.3000000000000000444, 0.2500000000000000000, 0.2500000000000000555 ) ) ;
#145 = ORIENTED_EDGE ( 'NONE', *, *, #340, .T. ) ;
#146 = DIRECTION ( 'NONE',  ( -1.000000000000000000, -0.000000000000000000, -0.000000000000000000 ) ) ;
#147 = DIRECTION ( 'NONE',  ( -1.000000000000000000, 0.000000000000000000, -0.000000000000000000 ) ) ;
#148 = ADVANCED_FACE ( 'NONE', ( #20 ), #193, .F. ) ;
#149 = EDGE_CURVE ( 'NONE', #217, #245, #419, .T. ) ;
#150 = DIRECTION ( 'NONE',  ( 5.421010862427520198E-16, -0.000000000000000000, 1.000000000000000000 ) ) ;
#151 = CARTESIAN_POINT ( 'NONE',  ( -0.4749999999999999778, -0.2250000000000000056, -0.2250000000000000056 ) ) ;
#152 = DIRECTION ( 'NONE',  ( 0.000000000000000000, -1.000000000000000000, 0.000000000000000000 ) ) ;
#153 = CARTESIAN_POINT ( 'NONE',  ( -0.4749999999999999778, 0.2250000000000000056, -0.2250000000000000056 ) ) ;
#154 = EDGE_CURVE ( 'NONE', #389, #455, #349, .T. ) ;
#155 = DIRECTION ( 'NONE',  ( -0.000000000000000000, -1.000000000000000000, -0.000000000000000000 ) ) ;
#156 = CARTESIAN_POINT ( 'NONE',  ( 0.3000000000000000444, 0.2500000000000000000, -0.2500000000000000555 ) ) ;
#157 = CARTESIAN_POINT ( 'NONE',  ( -0.2999999999999999334, 0.2500000000000000000, 0.2500000000000001110 ) ) ;
#158 = EDGE_LOOP ( 'NONE', ( #208, #323, #178, #161 ) ) ;
#159 = DIRECTION ( 'NONE',  ( 1.000000000000000000, 0.000000000000000000, 0.000000000000000000 ) ) ;
#160 = DIRECTION ( 'NONE',  ( 0.000000000000000000, 1.000000000000000000, 0.000000000000000000 ) ) ;
#161 = ORIENTED_EDGE ( 'NONE', *, *, #347, .T. ) ;
#162 = FACE_OUTER_BOUND ( 'NONE', #94, .T. ) ;
#163 = ORIENTED_EDGE ( 'NONE', *, *, #231, .F. ) ;
#164 = LINE ( 'NONE', #362, #381 ) ;
#165 = VERTEX_POINT ( 'NONE', #315 ) ;
#166 = DIRECTION ( 'NONE',  ( 2.168404344971007882E-16, 0.000000000000000000, 1.000000000000000000 ) ) ;
#167 = EDGE_LOOP ( 'NONE', ( #329, #309, #134, #430 ) ) ;
#168 = VECTOR ( 'NONE', #284, 1000.000000000000000 ) ;
#169 = MECHANICAL_DESIGN_GEOMETRIC_PRESENTATION_REPRESENTATION (  '', ( #463 ), #391 ) ;
#170 = DIRECTION ( 'NONE',  ( -1.000000000000000000, -0.000000000000000000, 5.421010862427520198E-16 ) ) ;
#171 = DIRECTION ( 'NONE',  ( -1.000000000000000000, -0.000000000000000000, -2.710505431213760099E-16 ) ) ;
#172 = DIRECTION ( 'NONE',  ( -0.000000000000000000, -1.000000000000000000, -0.000000000000000000 ) ) ;
#173 = VERTEX_POINT ( 'NONE', #93 ) ;
#174 = LINE ( 'NONE', #211, #140 ) ;
#175 = EDGE_LOOP ( 'NONE', ( #61, #477, #294, #360 ) ) ;
#176 = ADVANCED_FACE ( 'NONE', ( #392 ), #84, .F. ) ;
#177 = LINE ( 'NONE', #328, #11 ) ;
#178 = ORIENTED_EDGE ( 'NONE', *, *, #312, .F. ) ;
#179 = DIRECTION ( 'NONE',  ( -2.168404344971008375E-16, -0.000000000000000000, -1.000000000000000000 ) ) ;
#180 = EDGE_LOOP ( 'NONE', ( #233, #316, #287, #311 ) ) ;
#181 = PLANE ( 'NONE',  #333 ) ;
#182 = VECTOR ( 'NONE', #179, 1000.000000000000000 ) ;
#183 = CARTESIAN_POINT ( 'NONE',  ( -0.5000000000000000000, 0.2500000000000000000, 0.2500000000000001110 ) ) ;
#184 = DIRECTION ( 'NONE',  ( 1.000000000000000000, 0.000000000000000000, 0.000000000000000000 ) ) ;
#185 = DIRECTION ( 'NONE',  ( 0.000000000000000000, 1.000000000000000000, 0.000000000000000000 ) ) ;
#186 = DIRECTION ( 'NONE',  ( -2.168404344971008375E-16, -0.000000000000000000, -1.000000000000000000 ) ) ;
#187 = ADVANCED_FACE ( 'NONE', ( #162 ), #282, .F. ) ;
#188 = DIRECTION ( 'NONE',  ( 0.000000000000000000, 1.000000000000000000, 0.000000000000000000 ) ) ;
#189 = DIRECTION ( 'NONE',  ( 0.000000000000000000, 1.000000000000000000, 0.000000000000000000 ) ) ;
#190 = CARTESIAN_POINT ( 'NONE',  ( -0.4749999999999999778, 0.2250000000000000056, 0.2250000000000000333 ) ) ;
#191 = LINE ( 'NONE', #236, #404 ) ;
#192 = PRODUCT_DEFINITION ( 'UNKNOWN', '', #6, #442 ) ;
#193 = PLANE ( 'NONE',  #56 ) ;
#194 = VERTEX_POINT ( 'NONE', #54 ) ;
#195 = AXIS2_PLACEMENT_3D ( 'NONE', #73, #251, #212 ) ;
#196 = VECTOR ( 'NONE', #155, 1000.000000000000000 ) ;
#197 = AXIS2_PLACEMENT_3D ( 'NONE', #156, #150, #300 ) ;
#198 = CARTESIAN_POINT ( 'NONE',  ( -0.2999999999999999889, 0.2250000000000000056, 0.2250000000000000333 ) ) ;
#199 = VECTOR ( 'NONE', #170, 1000.000000000000000 ) ;
#200 = ORIENTED_EDGE ( 'NONE', *, *, #27, .F. ) ;
#201 = DIRECTION ( 'NONE',  ( 0.000000000000000000, 0.000000000000000000, -1.000000000000000000 ) ) ;
#202 = ORIENTED_EDGE ( 'NONE', *, *, #120, .F. ) ;
#203 = CARTESIAN_POINT ( 'NONE',  ( -0.3000000000000000444, 0.2250000000000000056, -0.2250000000000000056 ) ) ;
#204 = EDGE_CURVE ( 'NONE', #283, #205, #458, .T. ) ;
#205 = VERTEX_POINT ( 'NONE', #198 ) ;
#206 = VECTOR ( 'NONE', #46, 1000.000000000000000 ) ;
#207 = SURFACE_STYLE_FILL_AREA ( #398 ) ;
#208 = ORIENTED_EDGE ( 'NONE', *, *, #266, .T. ) ;
#209 = AXIS2_PLACEMENT_3D ( 'NONE', #379, #189, #49 ) ;
#210 = VERTEX_POINT ( 'NONE', #359 ) ;
#211 = CARTESIAN_POINT ( 'NONE',  ( 0.3000000000000000444, -0.2500000000000000000, 0.2500000000000000555 ) ) ;
#212 = DIRECTION ( 'NONE',  ( -2.168404344971007882E-16, 0.000000000000000000, -1.000000000000000000 ) ) ;
#213 = CARTESIAN_POINT ( 'NONE',  ( 0.3000000000000000444, 0.2500000000000000000, -0.2500000000000000555 ) ) ;
#214 = ORIENTED_EDGE ( 'NONE', *, *, #266, .F. ) ;
#215 = AXIS2_PLACEMENT_3D ( 'NONE', #460, #385, #51 ) ;
#216 = CARTESIAN_POINT ( 'NONE',  ( 0.3000000000000000444, 0.2500000000000000000, -0.2500000000000000555 ) ) ;
#217 = VERTEX_POINT ( 'NONE', #88 ) ;
#218 = LINE ( 'NONE', #226, #414 ) ;
#219 = UNCERTAINTY_MEASURE_WITH_UNIT (LENGTH_MEASURE( 1.000000000000000082E-05 ), #95, 'distance_accuracy_value', 'NONE');
#220 = LINE ( 'NONE', #262, #344 ) ;
#221 = PLANE ( 'NONE',  #9 ) ;
#222 = VECTOR ( 'NONE', #246, 1000.000000000000000 ) ;
#223 = VECTOR ( 'NONE', #326, 1000.000000000000000 ) ;
#224 = ADVANCED_FACE ( 'NONE', ( #13, #277 ), #129, .F. ) ;
#225 = LINE ( 'NONE', #151, #276 ) ;
#226 = CARTESIAN_POINT ( 'NONE',  ( 0.3000000000000000999, 0.2250000000000000056, -0.2250000000000000056 ) ) ;
#227 = FACE_OUTER_BOUND ( 'NONE', #87, .T. ) ;
#228 = CARTESIAN_POINT ( 'NONE',  ( 0.000000000000000000, 0.2250000000000000056, 0.000000000000000000 ) ) ;
#229 = DIRECTION ( 'NONE',  ( -0.000000000000000000, 1.000000000000000000, 0.000000000000000000 ) ) ;
#230 = CARTESIAN_POINT ( 'NONE',  ( -0.2999999999999999334, -0.2500000000000000000, 0.2500000000000001110 ) ) ;
#231 = EDGE_CURVE ( 'NONE', #194, #132, #464, .T. ) ;
#232 = CARTESIAN_POINT ( 'NONE',  ( -0.2999999999999999889, -0.2250000000000000056, -0.2250000000000000056 ) ) ;
#233 = ORIENTED_EDGE ( 'NONE', *, *, #71, .T. ) ;
#234 = EDGE_CURVE ( 'NONE', #258, #165, #164, .T. ) ;
#235 =( NAMED_UNIT ( * ) PLANE_ANGLE_UNIT ( ) SI_UNIT ( $, .RADIAN. ) );
#236 = CARTESIAN_POINT ( 'NONE',  ( 0.3000000000000000444, -0.2250000000000000056, 0.000000000000000000 ) ) ;
#237 = ORIENTED_EDGE ( 'NONE', *, *, #338, .F. ) ;
#238 = VECTOR ( 'NONE', #47, 1000.000000000000000 ) ;
#239 = CARTESIAN_POINT ( 'NONE',  ( 0.3000000000000000444, 0.2500000000000000000, -0.2500000000000000555 ) ) ;
#240 = ORIENTED_EDGE ( 'NONE', *, *, #234, .T. ) ;
#241 = SURFACE_STYLE_FILL_AREA ( #280 ) ;
#242 = EDGE_CURVE ( 'NONE', #244, #130, #405, .T. ) ;
#243 = CARTESIAN_POINT ( 'NONE',  ( 0.5000000000000001110, 0.2500000000000000000, -0.2500000000000001665 ) ) ;
#244 = VERTEX_POINT ( 'NONE', #83 ) ;
#245 = VERTEX_POINT ( 'NONE', #230 ) ;
#246 = DIRECTION ( 'NONE',  ( 0.000000000000000000, 0.000000000000000000, 1.000000000000000000 ) ) ;
#247 = ORIENTED_EDGE ( 'NONE', *, *, #234, .F. ) ;
#248 = AXIS2_PLACEMENT_3D ( 'NONE', #153, #304, #302 ) ;
#249 = EDGE_CURVE ( 'NONE', #244, #210, #436, .T. ) ;
#250 =( NAMED_UNIT ( * ) SI_UNIT ( $, .STERADIAN. ) SOLID_ANGLE_UNIT ( ) );
#251 = DIRECTION ( 'NONE',  ( 1.000000000000000000, 0.000000000000000000, -2.168404344971007882E-16 ) ) ;
#252 = LINE ( 'NONE', #101, #307 ) ;
#253 = ORIENTED_EDGE ( 'NONE', *, *, #242, .F. ) ;
#254 = ADVANCED_BREP_SHAPE_REPRESENTATION ( 'CC0402KRX7R7BB104', ( #325, #324 ), #373 ) ;
#255 = CARTESIAN_POINT ( 'NONE',  ( -0.3000000000000000444, 0.2500000000000000000, -0.2500000000000000000 ) ) ;
#256 = ORIENTED_EDGE ( 'NONE', *, *, #249, .T. ) ;
#257 = VECTOR ( 'NONE', #446, 1000.000000000000000 ) ;
#258 = VERTEX_POINT ( 'NONE', #317 ) ;
#259 = PRODUCT ( 'CC0402KRX7R7BB104', 'CC0402KRX7R7BB104', '', ( #19 ) ) ;
#260 = FACE_OUTER_BOUND ( 'NONE', #306, .T. ) ;
#261 = FACE_OUTER_BOUND ( 'NONE', #327, .T. ) ;
#262 = CARTESIAN_POINT ( 'NONE',  ( -0.3000000000000000444, 0.2500000000000000000, -0.2500000000000000000 ) ) ;
#263 = LINE ( 'NONE', #452, #388 ) ;
#264 = CARTESIAN_POINT ( 'NONE',  ( 0.3000000000000000444, 0.2500000000000000000, -0.2500000000000000555 ) ) ;
#265 = CARTESIAN_POINT ( 'NONE',  ( 0.3000000000000000444, -0.2500000000000000000, -0.2500000000000000555 ) ) ;
#266 = EDGE_CURVE ( 'NONE', #58, #400, #103, .T. ) ;
#267 = DIRECTION ( 'NONE',  ( 0.000000000000000000, -0.000000000000000000, 1.000000000000000000 ) ) ;
#268 = CARTESIAN_POINT ( 'NONE',  ( -0.5000000000000000000, 0.2500000000000000000, 0.2500000000000001110 ) ) ;
#269 = CARTESIAN_POINT ( 'NONE',  ( 0.3000000000000000444, -0.2500000000000000000, -0.2500000000000000555 ) ) ;
#270 = VECTOR ( 'NONE', #160, 1000.000000000000000 ) ;
#271 = CARTESIAN_POINT ( 'NONE',  ( -0.5000000000000001110, 0.2500000000000000000, -0.2500000000000000555 ) ) ;
#272 = ORIENTED_EDGE ( 'NONE', *, *, #143, .F. ) ;
#273 = DIRECTION ( 'NONE',  ( -0.000000000000000000, -1.000000000000000000, -0.000000000000000000 ) ) ;
#274 = VERTEX_POINT ( 'NONE', #135 ) ;
#275 = CARTESIAN_POINT ( 'NONE',  ( 0.000000000000000000, 0.000000000000000000, 0.000000000000000000 ) ) ;
#276 = VECTOR ( 'NONE', #146, 1000.000000000000000 ) ;
#277 = FACE_OUTER_BOUND ( 'NONE', #158, .T. ) ;
#278 = ORIENTED_EDGE ( 'NONE', *, *, #65, .F. ) ;
#279 = ADVANCED_FACE ( 'NONE', ( #137 ), #466, .T. ) ;
#280 = FILL_AREA_STYLE ('',( #92 ) ) ;
#281 = VECTOR ( 'NONE', #131, 1000.000000000000000 ) ;
#282 = PLANE ( 'NONE',  #447 ) ;
#283 = VERTEX_POINT ( 'NONE', #66 ) ;
#284 = DIRECTION ( 'NONE',  ( -2.168404344971008868E-16, -0.000000000000000000, -1.000000000000000000 ) ) ;
#285 = ORIENTED_EDGE ( 'NONE', *, *, #71, .F. ) ;
#286 = CARTESIAN_POINT ( 'NONE',  ( 0.000000000000000000, 0.2500000000000000000, 0.000000000000000000 ) ) ;
#287 = ORIENTED_EDGE ( 'NONE', *, *, #17, .F. ) ;
#288 = EDGE_CURVE ( 'NONE', #400, #210, #174, .T. ) ;
#289 =( NAMED_UNIT ( * ) PLANE_ANGLE_UNIT ( ) SI_UNIT ( $, .RADIAN. ) );
#290 = EDGE_LOOP ( 'NONE', ( #240, #396, #72, #469 ) ) ;
#291 = LINE ( 'NONE', #293, #223 ) ;
#292 = ORIENTED_EDGE ( 'NONE', *, *, #318, .T. ) ;
#293 = CARTESIAN_POINT ( 'NONE',  ( -0.4749999999999999778, 0.2250000000000000056, -0.2250000000000000056 ) ) ;
#294 = ORIENTED_EDGE ( 'NONE', *, *, #242, .T. ) ;
#295 = EDGE_CURVE ( 'NONE', #130, #173, #252, .T. ) ;
#296 = ORIENTED_EDGE ( 'NONE', *, *, #57, .F. ) ;
#297 = DIRECTION ( 'NONE',  ( -0.000000000000000000, 1.000000000000000000, 0.000000000000000000 ) ) ;
#298 = DIRECTION ( 'NONE',  ( 0.000000000000000000, -0.000000000000000000, 1.000000000000000000 ) ) ;
#299 = FACE_OUTER_BOUND ( 'NONE', #372, .T. ) ;
#300 = DIRECTION ( 'NONE',  ( 1.000000000000000000, 0.000000000000000000, -5.421010862427520198E-16 ) ) ;
#301 = COLOUR_RGB ( '',0.7921568627450980005, 0.8196078431372548767, 0.9333333333333333481 ) ;
#302 = DIRECTION ( 'NONE',  ( 1.000000000000000000, 0.000000000000000000, -0.000000000000000000 ) ) ;
#303 = CARTESIAN_POINT ( 'NONE',  ( -0.5000000000000001110, -0.2500000000000000000, -0.2500000000000000555 ) ) ;
#304 = DIRECTION ( 'NONE',  ( 0.000000000000000000, 0.000000000000000000, 1.000000000000000000 ) ) ;
#305 = PLANE ( 'NONE',  #248 ) ;
#306 = EDGE_LOOP ( 'NONE', ( #214, #453, #296, #14 ) ) ;
#307 = VECTOR ( 'NONE', #172, 1000.000000000000000 ) ;
#308 = CARTESIAN_POINT ( 'NONE',  ( -0.5000000000000000000, 0.2500000000000000000, 0.2500000000000001110 ) ) ;
#309 = ORIENTED_EDGE ( 'NONE', *, *, #149, .F. ) ;
#310 = CARTESIAN_POINT ( 'NONE',  ( 0.5000000000000001110, 0.2500000000000000000, -0.2500000000000001665 ) ) ;
#311 = ORIENTED_EDGE ( 'NONE', *, *, #142, .T. ) ;
#312 = EDGE_CURVE ( 'NONE', #90, #23, #22, .T. ) ;
#313 = MECHANICAL_DESIGN_GEOMETRIC_PRESENTATION_REPRESENTATION (  '', ( #28 ), #123 ) ;
#314 = ORIENTED_EDGE ( 'NONE', *, *, #120, .T. ) ;
#315 = CARTESIAN_POINT ( 'NONE',  ( -0.5000000000000000000, -0.2500000000000000000, 0.2500000000000001110 ) ) ;
#316 = ORIENTED_EDGE ( 'NONE', *, *, #380, .F. ) ;
#317 = CARTESIAN_POINT ( 'NONE',  ( -0.5000000000000001110, -0.2500000000000000000, -0.2500000000000000555 ) ) ;
#318 = EDGE_CURVE ( 'NONE', #245, #397, #98, .T. ) ;
#319 = APPLICATION_CONTEXT ( 'automotive_design' ) ;
#320 = ORIENTED_EDGE ( 'NONE', *, *, #347, .F. ) ;
#321 = PLANE ( 'NONE',  #433 ) ;
#322 = EDGE_CURVE ( 'NONE', #130, #90, #68, .T. ) ;
#323 = ORIENTED_EDGE ( 'NONE', *, *, #485, .F. ) ;
#324 = AXIS2_PLACEMENT_3D ( 'NONE', #275, #421, #159 ) ;
#325 = MANIFOLD_SOLID_BREP ( 'Boss-Extrude2', #45 ) ;
#326 = DIRECTION ( 'NONE',  ( -1.000000000000000000, -0.000000000000000000, -0.000000000000000000 ) ) ;
#327 = EDGE_LOOP ( 'NONE', ( #52, #314, #126, #107 ) ) ;
#328 = CARTESIAN_POINT ( 'NONE',  ( -0.5000000000000000000, 0.2500000000000000000, 0.2500000000000001110 ) ) ;
#329 = ORIENTED_EDGE ( 'NONE', *, *, #27, .T. ) ;
#330 = ADVANCED_FACE ( 'NONE', ( #431, #367 ), #321, .F. ) ;
#331 = SURFACE_STYLE_USAGE ( .BOTH. , #429 ) ;
#332 = EDGE_LOOP ( 'NONE', ( #292, #465, #473, #21 ) ) ;
#333 = AXIS2_PLACEMENT_3D ( 'NONE', #228, #409, #335 ) ;
#334 = AXIS2_PLACEMENT_3D ( 'NONE', #374, #37, #413 ) ;
#335 = DIRECTION ( 'NONE',  ( 0.000000000000000000, -0.000000000000000000, 1.000000000000000000 ) ) ;
#336 = LINE ( 'NONE', #481, #196 ) ;
#337 = CARTESIAN_POINT ( 'NONE',  ( -0.2999999999999999889, 0.2250000000000000056, 6.505213034913024139E-17 ) ) ;
#338 = EDGE_CURVE ( 'NONE', #8, #194, #291, .T. ) ;
#339 = CARTESIAN_POINT ( 'NONE',  ( 0.3000000000000000444, -0.2250000000000000056, -0.2250000000000000056 ) ) ;
#340 = EDGE_CURVE ( 'NONE', #455, #217, #177, .T. ) ;
#341 = CARTESIAN_POINT ( 'NONE',  ( 0.3000000000000000444, 0.2500000000000000000, -0.2500000000000000555 ) ) ;
#342 = VECTOR ( 'NONE', #171, 1000.000000000000000 ) ;
#343 = PLANE ( 'NONE',  #334 ) ;
#344 = VECTOR ( 'NONE', #186, 1000.000000000000000 ) ;
#345 = CARTESIAN_POINT ( 'NONE',  ( 0.3000000000000000999, 0.2250000000000000056, 0.2250000000000000333 ) ) ;
#346 = CARTESIAN_POINT ( 'NONE',  ( -0.2999999999999999889, -0.2250000000000000056, 6.505213034913024139E-17 ) ) ;
#347 = EDGE_CURVE ( 'NONE', #90, #58, #80, .T. ) ;
#348 = CARTESIAN_POINT ( 'NONE',  ( -0.5000000000000001110, 0.2500000000000000000, -0.2500000000000000555 ) ) ;
#349 = LINE ( 'NONE', #271, #281 ) ;
#350 = APPLICATION_CONTEXT ( 'automotive_design' ) ;
#351 = APPLICATION_PROTOCOL_DEFINITION ( 'draft international standard', 'automotive_design', 1998, #350 ) ;
#352 = LINE ( 'NONE', #395, #471 ) ;
#353 = EDGE_LOOP ( 'NONE', ( #423, #320, #402, #457 ) ) ;
#354 = SURFACE_SIDE_STYLE ('',( #241 ) ) ;
#355 = DIRECTION ( 'NONE',  ( -1.000000000000000000, 0.000000000000000000, 2.168404344971008868E-16 ) ) ;
#356 = VECTOR ( 'NONE', #115, 1000.000000000000000 ) ;
#357 = EDGE_LOOP ( 'NONE', ( #202, #97, #31, #467 ) ) ;
#358 = ADVANCED_FACE ( 'NONE', ( #260 ), #378, .F. ) ;
#359 = CARTESIAN_POINT ( 'NONE',  ( 0.5000000000000002220, -0.2500000000000000000, 0.2499999999999998335 ) ) ;
#360 = ORIENTED_EDGE ( 'NONE', *, *, #322, .T. ) ;
#361 = PRESENTATION_STYLE_ASSIGNMENT (( #384 ) ) ;
#362 = CARTESIAN_POINT ( 'NONE',  ( -0.5000000000000001110, -0.2500000000000000000, -0.2500000000000000555 ) ) ;
#363 = ORIENTED_EDGE ( 'NONE', *, *, #91, .F. ) ;
#364 = VECTOR ( 'NONE', #472, 1000.000000000000000 ) ;
#365 = ORIENTED_EDGE ( 'NONE', *, *, #403, .T. ) ;
#366 = ORIENTED_EDGE ( 'NONE', *, *, #249, .F. ) ;
#367 = FACE_OUTER_BOUND ( 'NONE', #332, .T. ) ;
#368 = CARTESIAN_POINT ( 'NONE',  ( 0.3000000000000000999, 0.2250000000000000056, -0.2250000000000000056 ) ) ;
#369 = DIRECTION ( 'NONE',  ( -1.000000000000000000, 0.000000000000000000, 2.168404344971008375E-16 ) ) ;
#370 = ADVANCED_FACE ( 'NONE', ( #407 ), #305, .F. ) ;
#371 = ORIENTED_EDGE ( 'NONE', *, *, #63, .F. ) ;
#372 = EDGE_LOOP ( 'NONE', ( #67, #366, #438, #417 ) ) ;
#373 =( GEOMETRIC_REPRESENTATION_CONTEXT ( 3 ) GLOBAL_UNCERTAINTY_ASSIGNED_CONTEXT ( ( #109 ) ) GLOBAL_UNIT_ASSIGNED_CONTEXT ( ( #443, #394, #454 ) ) REPRESENTATION_CONTEXT ( 'NONE', 'WORKASPACE' ) );
#374 = CARTESIAN_POINT ( 'NONE',  ( 0.3000000000000000444, 0.2500000000000000000, 0.2500000000000000555 ) ) ;
#375 = DIRECTION ( 'NONE',  ( -1.000000000000000000, -0.000000000000000000, -2.710505431213760099E-16 ) ) ;
#376 = EDGE_CURVE ( 'NONE', #23, #244, #121, .T. ) ;
#377 = CARTESIAN_POINT ( 'NONE',  ( 0.000000000000000000, -0.2500000000000000000, 0.000000000000000000 ) ) ;
#378 = PLANE ( 'NONE',  #39 ) ;
#379 = CARTESIAN_POINT ( 'NONE',  ( 0.000000000000000000, -0.2250000000000000056, 0.000000000000000000 ) ) ;
#380 = EDGE_CURVE ( 'NONE', #389, #258, #382, .T. ) ;
#381 = VECTOR ( 'NONE', #166, 1000.000000000000000 ) ;
#382 = LINE ( 'NONE', #348, #114 ) ;
#383 = DIRECTION ( 'NONE',  ( 1.000000000000000000, 0.000000000000000000, 0.000000000000000000 ) ) ;
#384 = SURFACE_STYLE_USAGE ( .BOTH. , #354 ) ;
#385 = DIRECTION ( 'NONE',  ( -2.710505431213760099E-16, 0.000000000000000000, 1.000000000000000000 ) ) ;
#386 = EDGE_LOOP ( 'NONE', ( #278, #64, #163, #237 ) ) ;
#387 = DIRECTION ( 'NONE',  ( -0.000000000000000000, -1.000000000000000000, -0.000000000000000000 ) ) ;
#388 = VECTOR ( 'NONE', #79, 1000.000000000000000 ) ;
#389 = VERTEX_POINT ( 'NONE', #486 ) ;
#390 = VECTOR ( 'NONE', #387, 1000.000000000000000 ) ;
#391 =( GEOMETRIC_REPRESENTATION_CONTEXT ( 3 ) GLOBAL_UNCERTAINTY_ASSIGNED_CONTEXT ( ( #76 ) ) GLOBAL_UNIT_ASSIGNED_CONTEXT ( ( #476, #289, #250 ) ) REPRESENTATION_CONTEXT ( 'NONE', 'WORKASPACE' ) );
#392 = FACE_OUTER_BOUND ( 'NONE', #180, .T. ) ;
#393 = EDGE_LOOP ( 'NONE', ( #363, #99, #5, #365 ) ) ;
#394 =( NAMED_UNIT ( * ) PLANE_ANGLE_UNIT ( ) SI_UNIT ( $, .RADIAN. ) );
#395 = CARTESIAN_POINT ( 'NONE',  ( -0.3000000000000000444, 0.2500000000000000000, -0.2500000000000000000 ) ) ;
#396 = ORIENTED_EDGE ( 'NONE', *, *, #412, .F. ) ;
#397 = VERTEX_POINT ( 'NONE', #410 ) ;
#398 = FILL_AREA_STYLE ('',( #96 ) ) ;
#399 = VERTEX_POINT ( 'NONE', #345 ) ;
#400 = VERTEX_POINT ( 'NONE', #483 ) ;
#401 = DIRECTION ( 'NONE',  ( 0.000000000000000000, 0.000000000000000000, 1.000000000000000000 ) ) ;
#402 = ORIENTED_EDGE ( 'NONE', *, *, #322, .F. ) ;
#403 = EDGE_CURVE ( 'NONE', #283, #274, #112, .T. ) ;
#404 = VECTOR ( 'NONE', #125, 1000.000000000000000 ) ;
#405 = LINE ( 'NONE', #133, #168 ) ;
#406 = PLANE ( 'NONE',  #195 ) ;
#407 = FACE_OUTER_BOUND ( 'NONE', #386, .T. ) ;
#408 = VECTOR ( 'NONE', #29, 1000.000000000000000 ) ;
#409 = DIRECTION ( 'NONE',  ( 0.000000000000000000, 1.000000000000000000, 0.000000000000000000 ) ) ;
#410 = CARTESIAN_POINT ( 'NONE',  ( -0.3000000000000000444, -0.2500000000000000000, -0.2500000000000000000 ) ) ;
#411 = DIRECTION ( 'NONE',  ( -1.000000000000000000, -0.000000000000000000, 5.421010862427520198E-16 ) ) ;
#412 = EDGE_CURVE ( 'NONE', #455, #165, #445, .T. ) ;
#413 = DIRECTION ( 'NONE',  ( -1.000000000000000000, 0.000000000000000000, 1.084202172485503448E-15 ) ) ;
#414 = VECTOR ( 'NONE', #185, 1000.000000000000000 ) ;
#415 = PLANE ( 'NONE',  #209 ) ;
#416 = LINE ( 'NONE', #346, #238 ) ;
#417 = ORIENTED_EDGE ( 'NONE', *, *, #485, .T. ) ;
#418 = EDGE_CURVE ( 'NONE', #420, #132, #225, .T. ) ;
#419 = LINE ( 'NONE', #157, #390 ) ;
#420 = VERTEX_POINT ( 'NONE', #339 ) ;
#421 = DIRECTION ( 'NONE',  ( 0.000000000000000000, 0.000000000000000000, 1.000000000000000000 ) ) ;
#422 = CARTESIAN_POINT ( 'NONE',  ( -0.2999999999999999334, 0.2250000000000000056, 0.2250000000000000333 ) ) ;
#423 = ORIENTED_EDGE ( 'NONE', *, *, #111, .T. ) ;
#424 = VECTOR ( 'NONE', #411, 1000.000000000000000 ) ;
#425 = EDGE_LOOP ( 'NONE', ( #247, #285, #138, #200 ) ) ;
#426 = EDGE_CURVE ( 'NONE', #205, #399, #451, .T. ) ;
#427 = CARTESIAN_POINT ( 'NONE',  ( 0.5000000000000002220, 0.2500000000000000000, 0.2499999999999998335 ) ) ;
#428 = ORIENTED_EDGE ( 'NONE', *, *, #154, .T. ) ;
#429 = SURFACE_SIDE_STYLE ('',( #207 ) ) ;
#430 = ORIENTED_EDGE ( 'NONE', *, *, #412, .T. ) ;
#431 = FACE_BOUND ( 'NONE', #102, .T. ) ;
#432 = VECTOR ( 'NONE', #441, 1000.000000000000000 ) ;
#433 = AXIS2_PLACEMENT_3D ( 'NONE', #255, #369, #30 ) ;
#434 = LINE ( 'NONE', #33, #342 ) ;
#435 = ADVANCED_FACE ( 'NONE', ( #449 ), #43, .T. ) ;
#436 = LINE ( 'NONE', #427, #364 ) ;
#437 = EDGE_CURVE ( 'NONE', #217, #475, #220, .T. ) ;
#438 = ORIENTED_EDGE ( 'NONE', *, *, #376, .F. ) ;
#439 = LINE ( 'NONE', #440, #408 ) ;
#440 = CARTESIAN_POINT ( 'NONE',  ( -0.5000000000000000000, -0.2500000000000000000, 0.2500000000000001110 ) ) ;
#441 = DIRECTION ( 'NONE',  ( 1.000000000000000000, 0.000000000000000000, 0.000000000000000000 ) ) ;
#442 = PRODUCT_DEFINITION_CONTEXT ( 'detailed design', #350, 'design' ) ;
#443 =( LENGTH_UNIT ( ) NAMED_UNIT ( * ) SI_UNIT ( .MILLI., .METRE. ) );
#444 = LINE ( 'NONE', #35, #478 ) ;
#445 = LINE ( 'NONE', #183, #53 ) ;
#446 = DIRECTION ( 'NONE',  ( 2.168404344971008375E-16, -0.000000000000000000, 1.000000000000000000 ) ) ;
#447 = AXIS2_PLACEMENT_3D ( 'NONE', #243, #355, #7 ) ;
#448 = ADVANCED_FACE ( 'NONE', ( #299 ), #343, .F. ) ;
#449 = FACE_OUTER_BOUND ( 'NONE', #175, .T. ) ;
#450 = DIRECTION ( 'NONE',  ( 0.000000000000000000, 0.000000000000000000, -1.000000000000000000 ) ) ;
#451 = LINE ( 'NONE', #190, #432 ) ;
#452 = CARTESIAN_POINT ( 'NONE',  ( 0.5000000000000001110, -0.2500000000000000000, -0.2500000000000001665 ) ) ;
#453 = ORIENTED_EDGE ( 'NONE', *, *, #111, .F. ) ;
#454 =( NAMED_UNIT ( * ) SI_UNIT ( $, .STERADIAN. ) SOLID_ANGLE_UNIT ( ) );
#455 = VERTEX_POINT ( 'NONE', #268 ) ;
#456 =( NAMED_UNIT ( * ) SI_UNIT ( $, .STERADIAN. ) SOLID_ANGLE_UNIT ( ) );
#457 = ORIENTED_EDGE ( 'NONE', *, *, #295, .T. ) ;
#458 = LINE ( 'NONE', #422, #270 ) ;
#459 = ORIENTED_EDGE ( 'NONE', *, *, #403, .F. ) ;
#460 = CARTESIAN_POINT ( 'NONE',  ( -0.5000000000000001110, 0.2500000000000000000, -0.2500000000000000555 ) ) ;
#461 = ORIENTED_EDGE ( 'NONE', *, *, #57, .T. ) ;
#462 = ADVANCED_FACE ( 'NONE', ( #227 ), #415, .F. ) ;
#463 = STYLED_ITEM ( 'NONE', ( #468 ), #325 ) ;
#464 = LINE ( 'NONE', #203, #48 ) ;
#465 = ORIENTED_EDGE ( 'NONE', *, *, #142, .F. ) ;
#466 = PLANE ( 'NONE',  #117 ) ;
#467 = ORIENTED_EDGE ( 'NONE', *, *, #65, .T. ) ;
#468 = PRESENTATION_STYLE_ASSIGNMENT (( #331 ) ) ;
#469 = ORIENTED_EDGE ( 'NONE', *, *, #380, .T. ) ;
#470 = AXIS2_PLACEMENT_3D ( 'NONE', #41, #122, #147 ) ;
#471 = VECTOR ( 'NONE', #273, 1000.000000000000000 ) ;
#472 = DIRECTION ( 'NONE',  ( -0.000000000000000000, -1.000000000000000000, -0.000000000000000000 ) ) ;
#473 = ORIENTED_EDGE ( 'NONE', *, *, #437, .F. ) ;
#474 = DIRECTION ( 'NONE',  ( 1.000000000000000000, 0.000000000000000000, 0.000000000000000000 ) ) ;
#475 = VERTEX_POINT ( 'NONE', #82 ) ;
#476 =( LENGTH_UNIT ( ) NAMED_UNIT ( * ) SI_UNIT ( .MILLI., .METRE. ) );
#477 = ORIENTED_EDGE ( 'NONE', *, *, #376, .T. ) ;
#478 = VECTOR ( 'NONE', #152, 1000.000000000000000 ) ;
#479 = CARTESIAN_POINT ( 'NONE',  ( 0.000000000000000000, -0.2500000000000000000, 0.000000000000000000 ) ) ;
#480 = PRODUCT_DEFINITION_SHAPE ( 'NONE', 'NONE',  #192 ) ;
#481 = CARTESIAN_POINT ( 'NONE',  ( 0.3000000000000000444, 0.2500000000000000000, 0.2500000000000000555 ) ) ;
#482 = LINE ( 'NONE', #1, #139 ) ;
#483 = CARTESIAN_POINT ( 'NONE',  ( 0.3000000000000000444, -0.2500000000000000000, 0.2500000000000000555 ) ) ;
#484 = LINE ( 'NONE', #303, #124 ) ;
#485 = EDGE_CURVE ( 'NONE', #23, #400, #336, .T. ) ;
#486 = CARTESIAN_POINT ( 'NONE',  ( -0.5000000000000001110, 0.2500000000000000000, -0.2500000000000000555 ) ) ;
ENDSEC;
END-ISO-10303-21;
